<svg width="820" height="820" viewBox="0 0 820 820" fill="none" xmlns="http://www.w3.org/2000/svg">
<circle opacity="0.56" cx="410" cy="410" r="410" fill="white"/>
<circle opacity="0.4" cx="411" cy="410" r="346" fill="white"/>
<circle opacity="0.8" cx="410.5" cy="409.5" r="282.5" fill="white"/>
<path d="M433.997 426.305C437.989 426.237 442.103 425.965 445.679 424.199C446.244 423.929 446.835 423.426 446.689 422.843C446.616 422.634 446.495 422.444 446.337 422.289C444.613 420.37 443.094 418.275 441.805 416.038C441.75 415.92 441.657 415.823 441.541 415.762C441.413 415.736 441.279 415.755 441.163 415.818C439.497 416.526 438.165 417.862 436.514 418.592C435.672 418.961 434.767 419.163 433.848 419.186C433.055 419.211 431.897 418.72 431.199 418.906C431.978 421.435 433.311 423.708 433.997 426.305Z" fill="#6C63FF"/>
<path d="M507.167 408.96C509.492 406.808 511.898 404.553 513.024 401.589C513.109 401.41 513.145 401.21 513.127 401.012C513.073 400.823 512.971 400.65 512.831 400.511C511.041 398.41 508.877 396.66 506.448 395.352C505.422 396.328 504.527 397.434 503.787 398.641C503.237 399.423 501.598 400.774 501.733 401.824C501.819 402.417 502.605 403.003 502.997 403.454C503.521 404.031 504.024 404.623 504.511 405.229C504.783 405.522 507.355 408.799 507.167 408.96Z" fill="#6C63FF"/>
<path d="M450.515 431.996C450.65 432.599 450.571 433.23 450.292 433.781C450.056 434.1 449.745 434.353 449.385 434.518C444.191 437.281 437.491 435.754 432.305 438.486C431.24 439.046 430.259 439.775 429.185 440.318C427.898 440.92 426.545 441.368 425.154 441.655C423.248 442.12 421.32 442.522 419.389 442.857C417.931 443.176 416.431 443.262 414.946 443.111C414.203 443.031 413.485 442.796 412.839 442.421C412.192 442.045 411.632 441.537 411.194 440.93C410.811 440.385 410.653 439.713 410.752 439.054C410.806 438.825 410.899 438.607 411.026 438.409C411.336 437.939 411.72 437.522 412.162 437.174L413.989 435.578C414.836 434.771 415.784 434.076 416.809 433.511C417.569 433.134 418.398 432.898 419.176 432.561C421.887 431.32 423.723 428.756 425.418 426.302L427.734 422.972C427.944 422.612 428.231 422.304 428.575 422.07C428.937 421.887 429.336 421.79 429.741 421.785C432.433 421.588 435.132 422.077 437.584 423.207C438.22 423.554 438.892 423.829 439.587 424.028C441.287 424.421 443.281 423.647 444.649 422.638C445.298 422.156 445.113 421.966 445.31 421.248C445.507 420.53 446.166 419.992 446.882 420.517C447.102 420.702 447.273 420.939 447.381 421.206C448.256 423.074 448.338 425.208 448.636 427.257C448.665 427.58 448.752 427.895 448.892 428.187C449.088 428.474 449.311 428.741 449.557 428.985C449.61 429.051 449.659 429.121 449.703 429.194C450.196 430.048 450.475 431.01 450.515 431.996V431.996Z" fill="#514E7F"/>
<path d="M450.515 431.996C450.65 432.599 450.571 433.23 450.292 433.781C450.056 434.1 449.744 434.353 449.385 434.518C444.191 437.282 437.491 435.754 432.305 438.486C431.24 439.046 430.259 439.775 429.185 440.319C427.898 440.92 426.545 441.368 425.154 441.655C423.248 442.12 421.32 442.522 419.389 442.857C417.931 443.176 416.431 443.262 414.946 443.111C414.203 443.032 413.485 442.796 412.839 442.421C412.192 442.045 411.632 441.537 411.194 440.93C410.811 440.385 410.653 439.713 410.752 439.054C410.806 438.825 410.899 438.607 411.026 438.409C411.443 439.032 411.803 439.886 412.05 440.177C412.391 440.611 412.82 440.968 413.309 441.223C413.798 441.478 414.335 441.626 414.886 441.657C415.693 441.589 416.48 441.37 417.206 441.01C421.993 439.056 427.269 438.27 431.768 435.71C433.312 434.827 434.747 433.741 436.411 433.1C438.074 432.459 439.916 432.299 441.668 431.893C444.437 431.26 447.028 430.018 449.724 429.172C450.213 430.035 450.485 431.004 450.515 431.996V431.996Z" fill="#464353"/>
<path d="M519.664 406.771C519.708 408.893 518.651 410.879 517.424 412.612C516.197 414.344 514.759 415.95 513.861 417.87C512.759 420.25 512.512 423.037 510.935 425.14C510.324 425.911 509.611 426.594 508.816 427.172C507.934 427.883 506.983 428.501 505.976 429.018C503.35 430.302 500.353 430.532 497.443 430.738C496.507 430.865 495.556 430.822 494.635 430.609C494.209 430.465 493.795 430.287 493.398 430.076C492.612 429.736 491.916 429.216 491.366 428.558C491.091 428.196 490.962 427.744 491.007 427.292C491.101 426.787 491.321 426.314 491.646 425.917C492.195 425.148 492.8 424.42 493.453 423.737C494.37 422.936 495.166 422.005 495.816 420.975C496.191 420.181 496.429 419.328 496.518 418.454C496.721 416.916 496.756 415.36 496.621 413.814C496.469 412.796 496.427 411.764 496.493 410.737C496.703 409.11 497.658 407.545 497.293 405.947C497.207 405.723 497.192 405.478 497.251 405.246C497.364 405.055 497.538 404.908 497.746 404.829C498.597 404.337 499.517 403.977 500.476 403.761C500.957 403.656 501.456 403.66 501.936 403.772C502.416 403.884 502.865 404.102 503.251 404.409C503.723 404.836 504.091 405.496 504.71 405.599C505.014 405.636 505.323 405.604 505.613 405.504C507.046 405.144 508.556 404.737 509.566 403.628C510.027 403.075 510.368 402.432 510.569 401.74C510.769 401.048 510.825 400.322 510.731 399.607C510.653 399.069 510.329 398.541 511.15 398.337C511.765 398.163 512.36 398.766 512.739 399.134C514.117 400.511 515.534 401.955 516.24 403.775C516.398 403.686 516.572 403.626 516.752 403.598C517.12 403.541 517.496 403.574 517.849 403.694C518.202 403.815 518.521 404.019 518.778 404.289C519.36 404.984 519.674 405.865 519.664 406.771Z" fill="#514E7F"/>
<path d="M519.664 406.772C519.708 408.894 518.651 410.879 517.424 412.612C516.197 414.344 514.759 415.95 513.861 417.871C512.759 420.25 512.512 423.037 510.935 425.141C510.324 425.911 509.611 426.595 508.816 427.172C507.935 427.883 506.983 428.501 505.976 429.019C503.35 430.302 500.353 430.533 497.443 430.739C496.507 430.866 495.556 430.822 494.635 430.609C494.209 430.465 493.795 430.287 493.398 430.076C492.612 429.736 491.916 429.216 491.366 428.558C491.882 428.21 492.465 427.977 493.078 427.873C494.365 427.759 495.475 428.83 496.753 429.025C498.573 429.298 500.132 427.814 501.838 427.136C502.951 426.696 504.174 426.591 505.258 426.034C506.155 425.527 506.956 424.866 507.624 424.081C508.564 423.177 509.367 422.139 510.007 421.001C510.513 419.883 510.899 418.714 511.159 417.514C511.775 415.198 512.567 412.932 513.529 410.736C513.668 410.391 513.849 410.064 514.069 409.763C514.31 409.468 514.597 409.245 514.878 408.974C515.93 407.908 516.206 406.362 516.41 404.857C516.458 404.402 516.552 403.953 516.691 403.516C517.06 403.459 517.436 403.493 517.789 403.613C518.142 403.733 518.46 403.937 518.718 404.207C519.34 404.915 519.678 405.829 519.664 406.772V406.772Z" fill="#464353"/>
<path d="M543.989 322.231L542.918 314.878C542.129 309.465 539.225 304.587 534.845 301.316C530.466 298.046 524.969 296.65 519.564 297.437L229.611 339.648C224.206 340.435 219.335 343.339 216.07 347.723C212.805 352.106 211.413 357.61 212.199 363.023L214.173 376.581L543.989 322.231Z" fill="#33323D"/>
<path d="M309.019 319.285C309.019 319.285 315.677 370.831 327.244 386.427C338.812 402.023 353.429 475.066 353.429 475.066C353.429 475.066 450.304 471.06 513.645 439.65C576.986 408.24 717.202 378.752 717.202 378.752L669.921 221.249C669.921 221.249 551.009 230.833 488.651 272.602C426.292 314.371 309.019 319.285 309.019 319.285Z" fill="#00D97E"/>
<path opacity="0.1" d="M309.019 319.285C309.019 319.285 315.677 370.831 327.244 386.427C338.812 402.023 353.429 475.066 353.429 475.066C353.429 475.066 450.304 471.06 513.645 439.65C576.986 408.24 717.202 378.752 717.202 378.752L669.921 221.249C669.921 221.249 551.009 230.833 488.651 272.602C426.292 314.371 309.019 319.285 309.019 319.285Z" fill="black"/>
<path d="M332.875 334.996C332.875 334.996 336.067 377.863 345.531 390.331C354.994 402.799 364.154 463.274 364.154 463.274C364.154 463.274 450.623 454.761 508.687 425.039C566.75 395.316 693.169 363.115 693.169 363.115L659.415 233.595C659.415 233.595 553.026 247.964 495.294 286.309C437.562 324.653 332.875 334.996 332.875 334.996Z" fill="#00D97E"/>
<path opacity="0.2" d="M593.916 152.233C593.916 152.233 483.686 197.906 437.148 256.828C390.61 315.75 280.511 356.47 280.511 356.47C280.511 356.47 302.641 403.485 318.423 414.779C334.205 426.073 370.49 491.119 370.49 491.119C370.49 491.119 461.445 457.527 512.089 408.146C562.733 358.766 687.156 287.598 687.156 287.598L593.916 152.233Z" fill="black"/>
<path d="M277.719 349.356C277.719 349.356 299.843 396.378 315.614 407.673C331.384 418.969 367.68 484.007 367.68 484.007C367.68 484.007 458.648 450.419 509.298 401.038C559.947 351.656 684.361 280.508 684.361 280.508L591.118 145.126C591.118 145.126 480.895 190.797 434.357 249.719C387.819 308.642 277.719 349.356 277.719 349.356Z" fill="#00D97E"/>
<path opacity="0.1" d="M277.719 349.356C277.719 349.356 299.843 396.378 315.614 407.673C331.384 418.969 367.68 484.007 367.68 484.007C367.68 484.007 458.648 450.419 509.298 401.038C559.947 351.656 684.361 280.508 684.361 280.508L591.118 145.126C591.118 145.126 480.895 190.797 434.357 249.719C387.819 308.642 277.719 349.356 277.719 349.356Z" fill="black"/>
<path d="M305.216 356.985C305.216 356.985 321.391 396.814 334.219 405.769C347.047 414.724 374.28 469.467 374.28 469.467C374.28 469.467 453.951 434.785 500.099 388.646C546.246 342.508 656.703 273.059 656.703 273.059L584.895 160.101C584.895 160.101 488.06 206.466 444.867 260.711C401.675 314.956 305.216 356.985 305.216 356.985Z" fill="#00D97E"/>
<path opacity="0.1" d="M494.592 364.247C504.998 357.415 501.565 333.752 486.924 311.395C472.283 289.038 451.979 276.452 441.573 283.284C431.167 290.116 434.6 313.778 449.241 336.136C463.882 358.493 484.186 371.079 494.592 364.247Z" fill="black"/>
<path opacity="0.1" d="M552.866 328.309L582.602 532.57C582.94 534.889 582.818 537.253 582.243 539.525C581.668 541.797 580.652 543.934 579.253 545.812C577.854 547.691 576.098 549.275 574.087 550.473C572.077 551.672 569.849 552.462 567.533 552.799L264.273 596.946C259.597 597.626 254.842 596.417 251.054 593.586C247.266 590.756 244.755 586.535 244.073 581.852L211.34 357C220.501 358.967 220.501 358.967 229.399 357.394L532.659 313.246C537.332 312.566 542.083 313.77 545.872 316.594C549.66 319.418 552.176 323.631 552.866 328.309V328.309Z" fill="black"/>
<path d="M553.244 330.908L582.98 535.169C583.66 539.853 582.455 544.616 579.629 548.41C576.804 552.203 572.589 554.717 567.911 555.398L264.651 599.545C259.975 600.225 255.22 599.016 251.432 596.185C247.644 593.355 245.133 589.134 244.452 584.451L211.718 359.593C220.877 361.554 220.877 361.554 229.777 359.987L533.037 315.839C537.71 315.159 542.463 316.363 546.252 319.189C550.04 322.014 552.555 326.229 553.244 330.908V330.908Z" fill="#504F60"/>
<path opacity="0.1" d="M563.375 406.551L572.884 471.873L509.631 481.081C501.042 482.214 492.351 479.913 485.439 474.677C478.528 469.441 473.952 461.691 472.702 453.104C471.452 444.517 473.628 435.784 478.76 428.795C483.892 421.806 491.566 417.123 500.122 415.759L563.375 406.551Z" fill="black"/>
<path d="M563.985 404.685L573.496 470.018L510.243 479.227C501.653 480.359 492.962 478.058 486.051 472.822C479.139 467.586 474.563 459.836 473.313 451.25C472.063 442.663 474.24 433.93 479.371 426.941C484.503 419.952 492.177 415.268 500.733 413.905L563.985 404.685Z" fill="#33323D"/>
<path opacity="0.1" d="M510.627 460.591C517.649 459.569 522.512 453.038 521.488 446.005C520.464 438.971 513.941 434.098 506.919 435.121C499.896 436.143 495.033 442.674 496.057 449.707C497.081 456.741 503.604 461.614 510.627 460.591Z" fill="black"/>
<path d="M511.238 458.737C518.261 457.714 523.124 451.184 522.1 444.15C521.076 437.117 514.553 432.244 507.53 433.266C500.507 434.289 495.644 440.819 496.668 447.853C497.692 454.886 504.215 459.759 511.238 458.737Z" fill="#6C63FF"/>
</svg>
