<?xml version="1.0" encoding="UTF-8"?>
<svg class="mr-1" width="16" height="16" viewBox="0 0 30 30" fill="none" xmlns="http://www.w3.org/2000/svg"><circle cx="15" cy="15" r="15" fill="#2B71FF"></circle><path d="M19.1079 19.0412L15.0043 23.1339L12.9645 21.0995C15.1637 20.9724 17.2832 20.2651 19.1079 19.0412Z" fill="white"></path><path d="M22.9967 14.8371L22.4947 14.3365L15.0047 6.86628L7.51462 14.3365L6.8692 14.9802C6.94888 15.0438 7.0206 15.1153 7.10028 15.1789C7.36323 15.4014 7.63414 15.608 7.91303 15.7987C10.8772 17.8809 14.5505 18.5087 17.9449 17.6822C19.3314 17.3484 20.6461 16.7683 21.8333 15.9815C22.1282 15.7828 22.415 15.5762 22.6939 15.3537C22.8453 15.2345 22.9967 15.1073 23.1481 14.9722L22.9967 14.8371ZM16.9808 16.7126C14.7497 15.3378 12.176 14.6226 9.54649 14.6305C12.9648 13.1524 17.1561 12.9458 21.0047 15.155C19.7776 15.9338 18.4071 16.4663 16.9808 16.7126Z" fill="white"></path></svg>
