<?xml version="1.0" encoding="UTF-8"?>
<svg width="39px" height="29px" viewBox="0 0 39 29" version="1.1" xmlns="http://www.w3.org/2000/svg" xmlns:xlink="http://www.w3.org/1999/xlink">
    <!-- Generator: Sketch 52.5 (67469) - http://www.bohemiancoding.com/sketch -->
    <title>Group</title>
    <desc>Created with Sketch.</desc>
    <g id="Page-1" stroke="none" stroke-width="1" fill="none" fill-rule="evenodd">
        <g id="Group">
            <path d="M23.1089358,8.35747048 L19,1.26075412 C19.2060155,1.17205777 19.4155991,1.08531706 19.6288917,1 C21.4922344,0.25466294 23.5024243,1.77635684e-15 25.652435,1.77635684e-15 C28.519116,1.77635684e-15 30.6432707,0.45910474 32.8936153,1.777778 C34.2161311,2.55275541 35.9858555,4.11769687 38.2027885,6.47260238 L31.5014879,10.0796274 C30.9630791,9.45836039 30.4200102,8.95965126 29.8722812,8.5835 C28.6826085,7.76649592 27.3867768,7.7235 25.695435,7.7235 C24.7898124,7.7235 23.9124149,8.03386013 23.1089358,8.35747048 Z M23.5513865,20.5449668 C24.2142811,20.7706585 24.9146277,20.945012 25.652435,20.945012 C27.3437768,20.945012 28.089159,21.0535041 29.2788316,20.2365 C29.8437981,19.848511 30.5846835,19.2728828 31.5014879,18.5096154 L38.2302744,22.3016623 C36.0134141,24.4922456 34.2345277,25.9779295 32.8936153,26.7587139 C30.6289373,28.0773872 28.1404045,28.2021348 25.2737235,28.2021348 C23.1273725,28.2021348 21.9727124,27.5064255 20.1149442,26.7625196 L23.5513865,20.5449668 Z" id="Combined-Shape" fill="#0F40C3"></path>
            <path d="M10,13 L9,13 L9,12 L10,12 L10,11 L12,11 L12,13 L10,13 Z M18,24 L17,24 L17,23 L18,23 L20,23 L20,25 L18,25 L18,24 Z M16,18 L16,17 L17,17 L17,18 L18,18 L18,20 L16,20 L16,19 L15,19 L15,18 L16,18 Z M22,21 L21,21 L19,21 L19,19 L21,19 L21,20 L22,20 L22,19 L23,19 L23,20 L24,20 L24,22 L22,22 L22,21 Z M20,8 L21,8 L21,10 L19,10 L19,9 L18,9 L18,8 L19,8 L19,7 L20,7 L20,8 Z M5,8 L7,8 L7,10 L5,10 L5,8 Z M10,5 L12,5 L12,7 L10,7 L10,5 Z M6,11 L8,11 L8,13 L6,13 L6,11 Z M8,14 L10,14 L10,16 L8,16 L8,14 Z M12,14 L14,14 L14,16 L12,16 L12,14 Z M6,16 L8,16 L8,18 L6,18 L6,16 Z M3,13 L5,13 L5,15 L3,15 L3,13 Z M0,14 L2,14 L2,16 L0,16 L0,14 Z M8,19 L10,19 L10,21 L8,21 L8,19 Z M12,17 L14,17 L14,19 L12,19 L12,17 Z M11,21 L13,21 L13,23 L11,23 L11,21 Z M14,24 L16,24 L16,26 L14,26 L14,24 Z M15,21 L17,21 L17,23 L15,23 L15,21 Z M20,26 L22,26 L22,28 L20,28 L20,26 Z M15,14 L17,14 L17,16 L15,16 L15,14 Z M14,11 L16,11 L16,13 L14,13 L14,11 Z M17,11 L19,11 L19,13 L17,13 L17,11 Z M12,8 L14,8 L14,10 L12,10 L12,8 Z M15,6 L17,6 L17,8 L15,8 L15,6 Z M17,5 L18,5 L18,6 L17,6 L17,5 Z M14,4 L15,4 L15,5 L14,5 L14,4 Z M19,2 L20,2 L20,3 L19,3 L19,2 Z M21,6 L22,6 L22,7 L21,7 L21,6 Z M16,10 L17,10 L17,11 L16,11 L16,10 Z M19,4 L21,4 L21,6 L19,6 L19,4 Z M16,2 L18,2 L18,4 L16,4 L16,2 Z M18,16 L20,16 L20,18 L18,18 L18,16 Z M31,22 L33,22 L33,24 L31,24 L31,22 Z M14,20 L15,20 L15,21 L14,21 L14,20 Z M17,25 L18,25 L18,26 L17,26 L17,25 Z M10,8 L11,8 L11,9 L10,9 L10,8 Z M9,9 L10,9 L10,10 L9,10 L9,9 Z M13,6 L14,6 L14,7 L13,7 L13,6 Z M10,17 L11,17 L11,18 L10,18 L10,17 Z" id="Combined-Shape" fill="#0F40C3" fill-rule="nonzero"></path>
            <path d="M16,9 L15,9 L15,8 L16,8 L17,8 L17,9 L16,9 Z M27,24 L27,23.2021348 L28,23.2021348 L28,24.2021348 L27,24.2021348 L27,25 L26,25 L26,24 L27,24 Z M25,26 L25,25.2021348 L26,25.2021348 L26,26.2021348 L25,26.2021348 L25,27 L24,27 L24,26 L25,26 Z M24,24.2021348 L23,24.2021348 L23,23.2021348 L24,23.2021348 L24,24 L25,24 L25,25 L24,25 L24,24.2021348 Z M24,2 L25,2 L25,3 L24,3 L24,2.2021348 L23,2.2021348 L23,1.2021348 L24,1.2021348 L24,2 Z M12,12 L13,12 L13,13 L12,13 L12,12 Z M13,10 L14,10 L14,11 L13,11 L13,10 Z M15,10 L16,10 L16,11 L15,11 L15,10 Z M17,9 L18,9 L18,10 L17,10 L17,9 Z M19,10 L20,10 L20,11 L19,11 L19,10 Z M16,13 L17,13 L17,14 L16,14 L16,13 Z M17,14 L18,14 L18,15 L17,15 L17,14 Z M18,13 L19,13 L19,14 L18,14 L18,13 Z M19,14 L20,14 L20,15 L19,15 L19,14 Z M17,16 L18,16 L18,17 L17,17 L17,16 Z M14,16 L15,16 L15,17 L14,17 L14,16 Z M15,17 L16,17 L16,18 L15,18 L15,17 Z M14,13 L15,13 L15,14 L14,14 L14,13 Z M15,19 L16,19 L16,20 L15,20 L15,19 Z M18,20 L19,20 L19,21 L18,21 L18,20 Z M20,21 L21,21 L21,22 L20,22 L20,21 Z M19,22 L20,22 L20,23 L19,23 L19,22 Z M21,22 L22,22 L22,23 L21,23 L21,22 Z M17,22 L18,22 L18,23 L17,23 L17,22 Z M14,23 L15,23 L15,24 L14,24 L14,23 Z M14,21 L15,21 L15,22 L14,22 L14,21 Z M13,19 L14,19 L14,20 L13,20 L13,19 Z M11,19 L12,19 L12,20 L11,20 L11,19 Z M11,16 L12,16 L12,17 L11,17 L11,16 Z M10,14 L11,14 L11,15 L10,15 L10,14 Z M19,25 L20,25 L20,26 L19,26 L19,25 Z M22,4 L23,4 L23,5 L22,5 L22,4 Z M24,5 L25,5 L25,6 L24,6 L24,5 Z M25,6 L26,6 L26,7 L25,7 L25,6 Z M18,5.2021348 L19,5.2021348 L19,6.2021348 L18,6.2021348 L18,5.2021348 Z M18,3.2021348 L19,3.2021348 L19,4.2021348 L18,4.2021348 L18,3.2021348 Z M18,1.2021348 L19,1.2021348 L19,2.2021348 L18,2.2021348 L18,1.2021348 Z M21,5.2021348 L22,5.2021348 L22,6.2021348 L21,6.2021348 L21,5.2021348 Z M20,6.2021348 L21,6.2021348 L21,7.2021348 L20,7.2021348 L20,6.2021348 Z M22,7.2021348 L23,7.2021348 L23,8.2021348 L22,8.2021348 L22,7.2021348 Z M21,8.2021348 L22,8.2021348 L22,9.2021348 L21,9.2021348 L21,8.2021348 Z M18,7.2021348 L19,7.2021348 L19,8.2021348 L18,8.2021348 L18,7.2021348 Z M17,6.2021348 L18,6.2021348 L18,7.2021348 L17,7.2021348 L17,6.2021348 Z M16,5.2021348 L17,5.2021348 L17,6.2021348 L16,6.2021348 L16,5.2021348 Z M21,2.2021348 L22,2.2021348 L22,3.2021348 L21,3.2021348 L21,2.2021348 Z M15,2.2021348 L16,2.2021348 L16,3.2021348 L15,3.2021348 L15,2.2021348 Z M24,0.2021348 L25,0.2021348 L25,1.2021348 L24,1.2021348 L24,0.2021348 Z M27,6.2021348 L28,6.2021348 L28,7.2021348 L27,7.2021348 L27,6.2021348 Z M26,2 L27,2 L27,3 L26,3 L26,2 Z M26,4 L27,4 L27,5 L26,5 L26,4 Z M20,1 L21,1 L21,2 L20,2 L20,1 Z M23,20 L24,20 L24,21 L23,21 L23,20 Z M22,25 L23,25 L23,26 L22,26 L22,25 Z M21,26 L22,26 L22,27 L21,27 L21,26 Z M25,22.2021348 L26,22.2021348 L26,23.2021348 L25,23.2021348 L25,22.2021348 Z M26,21.2021348 L27,21.2021348 L27,22.2021348 L26,22.2021348 L26,21.2021348 Z M21,23.2021348 L22,23.2021348 L22,24.2021348 L21,24.2021348 L21,23.2021348 Z M26,27.2021348 L27,27.2021348 L27,28.2021348 L26,28.2021348 L26,27.2021348 Z M23,27.2021348 L24,27.2021348 L24,28.2021348 L23,28.2021348 L23,27.2021348 Z M16,24.2021348 L17,24.2021348 L17,25.2021348 L16,25.2021348 L16,24.2021348 Z M27,26 L28,26 L28,27 L27,27 L27,26 Z M14,6 L15,6 L15,7 L14,7 L14,6 Z M13,5 L14,5 L14,6 L13,6 L13,5 Z M15,4 L16,4 L16,5 L15,5 L15,4 Z" id="Combined-Shape" fill="#AFC8FB" fill-rule="nonzero"></path>
        </g>
    </g>
</svg>