<?xml version="1.0" encoding="UTF-8"?>
<svg width="30px" height="30px" viewBox="0 0 30 30" version="1.1" xmlns="http://www.w3.org/2000/svg" xmlns:xlink="http://www.w3.org/1999/xlink">
    <!-- Generator: Sketch 52.5 (67469) - http://www.bohemiancoding.com/sketch -->
    <title>Group 2</title>
    <desc>Created with Sketch.</desc>
    <g id="Wallet" stroke="none" stroke-width="1" fill="none" fill-rule="evenodd">
        <g id="Artboard-Copy" transform="translate(-930.000000, -249.000000)">
            <g id="Group-2" transform="translate(930.000000, 249.000000)">
                <path d="M15,29.5 C6.99187113,29.5 0.5,23.0081289 0.5,15 C0.5,6.99187113 6.99187113,0.5 15,0.5 C23.0081289,0.5 29.5,6.99187113 29.5,15 C29.5,23.0081289 23.0081289,29.5 15,29.5 Z M15,28.5 C22.4558441,28.5 28.5,22.4558441 28.5,15 C28.5,7.54415588 22.4558441,1.5 15,1.5 C7.54415588,1.5 1.5,7.54415588 1.5,15 C1.5,22.4558441 7.54415588,28.5 15,28.5 Z" id="Oval" fill="#212121" fill-rule="nonzero"></path>
                <polygon id="Path-2" fill="#E1DED9" fill-rule="nonzero" points="22.3934686 8 18 12.2214355 22.3934686 12.5104248 23.0703376 10.5129415"></polygon>
                <path d="M7,22.8043732 L9.34260326,20.4717703 L9.34260326,16.0668408 L17.1201389,8.33103331 L17.1201389,8.32444404 C17.2205219,8.22560493 17.320905,8.12676582 17.4209568,8.02792671 C17.4322209,8.0180428 17.4431537,8.00486426 17.4547491,7.99498034 C17.4822468,7.96862325 17.5104071,7.94226615 17.5388987,7.9192037 C17.6041642,7.85990023 17.6714176,7.8038914 17.7406587,7.75117721 C17.7771014,7.72152548 17.8138754,7.69516839 17.851312,7.66881129 C17.9149211,7.62268637 17.9801867,7.5798561 18.0467774,7.53702582 C18.063011,7.5271419 18.0792446,7.51725799 18.0954781,7.50737408 C18.1620689,7.46783844 18.2303161,7.43159743 18.2995573,7.39535643 C18.4042472,7.34264224 18.5115876,7.29322268 18.621247,7.2503924 C18.7845765,7.1877943 18.9525443,7.13508011 19.1234937,7.09554447 C19.292124,7.05600883 19.4640673,7.0263571 19.6370045,7.01317855 C19.6870304,7.00988391 19.7370563,7.00658927 19.7870822,7.00329464 C19.8308134,7 19.8742134,7 19.9179446,7 C19.9388164,7 19.9600194,7 19.9812224,7 C20.0103766,7 20.0391994,7 20.0683536,7 C20.1548222,7.00329464 20.2412908,7.00988391 20.3270968,7.01976782 C20.500034,7.03624101 20.6713147,7.06589274 20.8396137,7.10872302 C20.9449663,7.13508011 21.0493249,7.16802648 21.1520271,7.20426749 C21.2007278,7.22074067 21.2487659,7.23721386 21.2964727,7.25698168 C21.5413014,7.35582079 21.774866,7.47772235 21.9925284,7.62598101 C22.3980363,7.90273051 22.7468923,8.26184593 23.0099424,8.67367555 C23.1169514,8.84170203 23.2097147,9.01961242 23.2872382,9.20411209 C23.3465405,9.34248684 23.3968977,9.48745086 23.4379785,9.63570952 C23.5380303,9.99482495 23.581099,10.3737082 23.565528,10.7460022 C23.5552578,10.9898053 23.519809,11.2336084 23.4601754,11.4708223 C23.4157816,11.6487327 23.3578046,11.8200538 23.2872382,11.9880803 C23.2199849,12.1462228 23.1404735,12.3043654 23.050692,12.4526241 C22.9927149,12.5481685 22.9300997,12.6404184 22.863509,12.7293736 C22.7863167,12.834802 22.7031611,12.9336411 22.6153673,13.0291855 C22.5842254,13.0621319 22.5524208,13.0950783 22.520285,13.1280246 L22.5113399,13.1346139 C22.476885,13.1708549 22.4417675,13.2038013 22.4059874,13.2367477 C22.3662317,13.2729887 22.3254822,13.3092297 22.28407,13.342176 L22.3022913,13.3289975 L14.445907,21.1405816 L9.98863301,21.1405816 L8.31790069,22.8043732 L7,22.8043732 Z M15.6067728,18.6267736 L12.5157689,18.6267736 L10.954696,20.1818423 L14.0456998,20.1818423 L15.6067728,18.6267736 Z M10.3086662,16.4654918 L10.3086662,19.513031 L11.8690765,17.961257 L11.8690765,14.9137178 L10.3086662,16.4654918 Z M18.302539,15.9482338 L15.2115351,15.9482338 L13.4477082,17.7009807 L16.5387121,17.7009807 L18.302539,15.9482338 Z M12.8010159,13.9846302 L12.8010159,17.035464 L14.5479466,15.2958957 L14.5479466,12.2483566 L12.8010159,13.9846302 Z M21.0314349,13.233453 L17.9407623,13.233453 L16.1434744,15.0191462 L19.234147,15.0191462 L21.0314349,13.233453 Z M15.4795546,11.3225636 L15.4795546,14.3701028 L17.2768425,12.5844096 L17.2768425,9.53357578 L15.4795546,11.3225636 Z M21.9673498,12.3076601 C22.1011939,12.1528121 22.2168166,11.981491 22.3109051,11.7969913 C22.3831279,11.6586166 22.4427614,11.5103579 22.4888117,11.3620993 C22.5365185,11.2039567 22.569317,11.0425195 22.5868757,10.8777876 C22.6176864,10.5977435 22.6021154,10.3078155 22.5408254,10.031066 C22.4881491,9.79055746 22.4016805,9.55663824 22.28407,9.34248684 C22.216154,9.21729064 22.1379679,9.09868371 22.0505054,8.98666605 C21.8788934,8.76592538 21.6718326,8.5715418 21.4399245,8.41339923 C21.2474407,8.28490839 21.0373982,8.17948001 20.8174168,8.10370336 C20.6312277,8.04110526 20.4380814,7.99827498 20.242616,7.97521252 C20.184639,7.96862325 20.1266619,7.96532861 20.0683536,7.96203398 C20.0368804,7.96203398 20.0050758,7.96203398 19.9732713,7.96203398 C19.9626698,7.96203398 19.9520682,7.96203398 19.9414667,7.96203398 C19.920595,7.96203398 19.899392,7.96203398 19.8781889,7.96203398 C19.8304821,7.96203398 19.7831066,7.96532861 19.7353998,7.96862325 C19.5982427,7.97850716 19.4617482,8.00156962 19.3275728,8.03451599 C19.1821333,8.06746236 19.0396755,8.11688191 18.9025184,8.17618537 C18.7630422,8.23548884 18.6285355,8.30797085 18.5016486,8.39033677 C18.4065663,8.45293487 18.3157908,8.51882761 18.2296535,8.59460426 C18.2226963,8.5978989 18.2154078,8.60448817 18.2087818,8.61107745 L18.2087818,11.6553219 L19.9649888,9.90916439 C19.9971247,9.88610193 20.0262788,9.8564502 20.0613964,9.83668237 C20.1561474,9.78067355 20.1882832,9.78726282 20.2942984,9.77408427 C20.3343853,9.78067355 20.3744723,9.78396818 20.4148906,9.79055746 C20.5136172,9.8300931 20.5460843,9.83338774 20.6236079,9.90916439 C20.6524308,9.93881612 20.6776093,9.97176249 20.6978185,10.0047089 C20.7385681,10.0771909 20.7601024,10.1562622 20.7601024,10.2386281 C20.7601024,10.2781637 20.7548016,10.3176994 20.7442001,10.357235 C20.7160398,10.4626634 20.6888735,10.4791366 20.6236079,10.5647971 L18.8723703,12.3076601 L21.9673498,12.3076601 Z" id="Shape" fill="#212121"></path>
                <path d="M12.6710313,19.1306375 L12.1005714,19.7005899 L13.8511198,19.7005899 L14.4078094,19.1306375 L12.6710313,19.1306375 Z M14.8961746,18.6306375 L15.3845397,18.6306375 L15.4479751,18.7812703 L15.1067375,19.1306375 L14.4078094,19.1306375 L14.8961746,18.6306375 Z M12.4640549,18.6306375 L15.5951027,18.6306375 L14.0616827,20.2005899 L10.8927045,20.2005899 L12.4640549,18.6306375 Z" id="Path-3" fill="#FA903E" fill-rule="nonzero"></path>
                <path d="M15.4212218,16.4467263 L14.6475518,17.1950094 L16.3488122,17.1950094 L17.1020366,16.4467263 L15.4212218,16.4467263 Z M15.2189835,15.9467263 L18.3147838,15.9467263 L16.5549558,17.6950094 L13.4113866,17.6950094 L15.2189835,15.9467263 Z" id="Path-3" fill="#FA903E" fill-rule="nonzero"></path>
                <path d="M18.1096603,13.7218701 L17.2935541,14.5391435 L19.0943761,14.5391435 L19.8697777,13.7218701 L18.1096603,13.7218701 Z M17.9023442,13.2218701 L21.0333919,13.2218701 L19.309224,15.0391435 L16.0876662,15.0391435 L17.9023442,13.2218701 Z" id="Path-3" fill="#FA903E" fill-rule="nonzero"></path>
            </g>
        </g>
    </g>
</svg>