<?xml version="1.0" encoding="utf-8"?>
<svg xmlns="http://www.w3.org/2000/svg" height="256" width="256" viewBox="0 0 256 256">
  <g>
    <path id="path1" transform="rotate(0,128,128) translate(46.1455046235542,0) scale(8.00024414807581,8.00024414807581)  " fill="#CD3535" d="M6.1720122,26.640015L12.506012,26.640015 12.506012,31.999023 6.1720122,31.999023z M6.169998,22.900024L6.1737445,22.900024 6.1720122,23.064941z M10.068994,0C13.318025,0 15.754005,0.81201172 17.703046,2.4359741 19.490037,4.0609741 20.463,6.335022 20.463,9.0949707 20.463,10.882019 19.976001,12.669006 18.839034,14.130005 17.701032,15.591003 16.402993,17.052979 14.777989,18.028015 13.967013,18.677002 13.316011,19.328003 12.992036,20.139038 12.667023,20.78894 12.505035,21.764038 12.505035,22.900024L6.1737445,22.900024 6.1758092,22.703424C6.2137826,20.916021 6.5366138,19.440285 7.1460131,18.680054 7.7950018,17.705994 8.9320286,16.567993 10.71902,15.268982 11.693022,14.45697 12.506012,13.481995 13.155,12.507996 13.805026,11.533997 14.129001,10.395996 14.129001,9.2589722 14.129001,7.9589844 13.805026,6.822998 13.155,6.1740112 12.506012,5.3619995 11.531033,5.0360107 10.232019,5.0360107 9.0949925,5.0360107 8.2829788,5.3610229 7.4720028,6.0100098 6.6599892,6.6589966 6.3339995,7.6339722 6.3339995,8.7709961L0,8.7709961 0,8.6079712C1.7478305E-07,5.8480225 0.81097621,3.7360229 2.7600165,2.2739868 4.7099722,0.81201172 6.9829882,0 10.068994,0z" />
  </g>
</svg>

